<?xml version="1.0" encoding="UTF-8" standalone="no"?><!-- Generator: Gravit.io --><svg xmlns="http://www.w3.org/2000/svg" xmlns:xlink="http://www.w3.org/1999/xlink" style="isolation:isolate" viewBox="5.089 4.264 58.822 32.473" width="58.822pt" height="32.473pt"><g><g><path d="M 7.099 4.91 L 15.141 4.91 C 16.25 4.91 17.15 5.81 17.15 6.918 L 17.15 17.862 C 17.15 18.97 16.25 19.87 15.141 19.87 L 7.099 19.87 C 5.99 19.87 5.09 18.97 5.09 17.862 L 5.09 6.918 C 5.09 5.81 5.99 4.91 7.099 4.91 Z" style="stroke:none;fill:#0000FF;stroke-miterlimit:10;"/><path d=" M 18.696 19.596 L 18.598 19.596 L 18.598 9.146 L 18.598 9.146 Q 18.598 7.037 19.917 5.68 L 19.917 5.68 L 19.917 5.68 Q 21.304 4.264 23.53 4.264 L 23.53 4.264 L 23.53 4.264 Q 25.542 4.264 26.958 5.68 L 26.958 5.68 L 26.958 5.68 Q 27.309 6.031 27.485 6.363 L 27.485 6.363 L 27.485 6.363 Q 27.71 6.021 28.032 5.709 L 28.032 5.709 L 28.032 5.709 Q 29.507 4.264 31.44 4.264 L 31.44 4.264 L 31.44 4.264 Q 33.628 4.264 35.054 5.68 L 35.054 5.68 L 35.054 5.68 Q 36.372 6.988 36.372 9.146 L 36.372 9.146 L 36.372 18.717 L 34.516 19.596 L 34.419 19.596 L 34.419 9.146 L 34.419 9.146 Q 34.419 7.838 33.716 7.027 L 33.716 7.027 L 33.716 7.027 Q 32.846 6.021 31.44 6.021 L 31.44 6.021 L 31.44 6.021 Q 30.034 6.021 29.165 7.027 L 29.165 7.027 L 29.165 7.027 Q 28.462 7.838 28.462 9.146 L 28.462 9.146 L 28.462 18.717 L 26.606 19.596 L 26.509 19.596 L 26.509 9.146 L 26.509 9.146 Q 26.509 7.838 25.805 7.027 L 25.805 7.027 L 25.805 7.027 Q 24.936 6.021 23.53 6.021 L 23.53 6.021 L 23.53 6.021 Q 22.124 6.021 21.255 7.027 L 21.255 7.027 L 21.255 7.027 Q 20.552 7.838 20.552 9.146 L 20.552 9.146 L 20.552 18.717 L 18.696 19.596 Z  M 40.376 19.596 L 40.278 19.596 L 40.278 9.146 L 40.278 9.146 Q 40.278 7.037 41.596 5.68 L 41.596 5.68 L 41.596 5.68 Q 42.983 4.264 45.21 4.264 L 45.21 4.264 L 45.21 4.264 Q 47.397 4.264 48.823 5.68 L 48.823 5.68 L 48.823 5.68 Q 50.141 6.988 50.141 9.146 L 50.141 9.146 L 50.141 18.717 L 48.286 19.596 L 48.188 19.596 L 48.188 12.721 L 42.231 12.721 L 42.231 18.717 L 40.376 19.596 Z  M 42.231 9.146 L 42.231 10.943 L 48.188 10.943 L 48.188 9.146 L 48.188 9.146 Q 48.188 7.838 47.485 7.027 L 47.485 7.027 L 47.485 7.027 Q 46.616 6.021 45.21 6.021 L 45.21 6.021 L 45.21 6.021 Q 43.804 6.021 42.934 7.027 L 42.934 7.027 L 42.934 7.027 Q 42.231 7.838 42.231 9.146 L 42.231 9.146 Z  M 54.145 19.596 L 54.048 19.596 L 54.048 9.146 L 54.048 9.146 Q 54.048 7.037 55.366 5.68 L 55.366 5.68 L 55.366 5.68 Q 56.753 4.264 58.979 4.264 L 58.979 4.264 L 58.979 4.264 Q 61.177 4.264 62.593 5.68 L 62.593 5.68 L 62.593 5.68 Q 63.911 6.988 63.911 9.146 L 63.911 9.146 L 63.911 18.717 L 62.055 19.596 L 61.958 19.596 L 61.958 9.146 L 61.958 9.146 Q 61.958 7.838 61.255 7.027 L 61.255 7.027 L 61.255 7.027 Q 60.386 6.021 58.979 6.021 L 58.979 6.021 L 58.979 6.021 Q 57.573 6.021 56.704 7.027 L 56.704 7.027 L 56.704 7.027 Q 56.001 7.838 56.001 9.146 L 56.001 9.146 L 56.001 18.717 L 54.145 19.596 Z " fill="rgb(255,0,0)"/><path d=" M 15.061 31.736 L 15.061 31.736 L 15.061 31.736 Q 15.061 33.729 13.753 35.125 L 13.753 35.125 L 13.753 35.125 Q 12.415 36.541 10.139 36.541 L 10.139 36.541 L 10.139 36.541 Q 7.864 36.541 6.526 35.125 L 6.526 35.125 L 6.526 35.125 Q 5.208 33.729 5.208 31.854 L 5.208 31.854 L 7.063 30.975 L 7.161 30.975 L 7.161 31.775 L 7.161 31.775 Q 7.161 32.967 7.864 33.777 L 7.864 33.777 L 7.864 33.777 Q 8.733 34.783 10.139 34.783 L 10.139 34.783 L 10.139 34.783 Q 11.536 34.783 12.415 33.777 L 12.415 33.777 L 12.415 33.777 Q 13.108 32.986 13.108 31.756 L 13.108 31.756 L 13.108 31.756 Q 13.108 30.594 12.542 29.93 L 12.542 29.93 L 12.542 29.93 Q 11.761 29.012 10.139 29.012 L 10.139 29.012 L 10.139 29.012 Q 8.362 29.012 7.063 27.84 L 7.063 27.84 L 7.063 27.84 Q 6.087 26.961 6.087 25.291 L 6.087 25.291 L 6.087 25.291 Q 6.087 23.328 7.298 22.342 L 7.298 22.342 L 7.298 22.342 Q 8.45 21.404 10.139 21.404 L 10.139 21.404 L 10.139 21.404 Q 11.829 21.404 12.981 22.342 L 12.981 22.342 L 12.981 22.342 Q 14.192 23.328 14.192 25.047 L 14.192 25.047 L 12.337 25.926 L 12.239 25.926 L 12.239 25.145 L 12.239 25.145 Q 12.239 24.031 11.604 23.484 L 11.604 23.484 L 11.604 23.484 Q 10.989 22.947 10.139 22.947 L 10.139 22.947 L 10.139 22.947 Q 9.192 22.947 8.616 23.543 L 8.616 23.543 L 8.616 23.543 Q 8.04 24.139 8.04 25.145 L 8.04 25.145 L 8.04 25.145 Q 8.04 26.111 8.479 26.6 L 8.479 26.6 L 8.479 26.6 Q 9.065 27.254 10.139 27.254 L 10.139 27.254 L 10.139 27.254 Q 12.503 27.254 13.753 28.367 L 13.753 28.367 L 13.753 28.367 Q 15.061 29.529 15.061 31.736 Z  M 18.684 36.736 L 18.587 36.736 L 18.587 22.088 L 20.442 21.209 L 20.54 21.209 L 20.54 28.084 L 26.302 28.084 L 26.302 22.088 L 28.157 21.209 L 28.255 21.209 L 28.255 35.857 L 26.399 36.736 L 26.302 36.736 L 26.302 29.861 L 20.54 29.861 L 20.54 35.857 L 18.684 36.736 Z  M 34.114 26.287 L 34.114 31.658 L 34.114 31.658 Q 34.114 32.967 34.817 33.777 L 34.817 33.777 L 34.817 33.777 Q 35.686 34.783 37.093 34.783 L 37.093 34.783 L 37.093 34.783 Q 38.499 34.783 39.368 33.777 L 39.368 33.777 L 39.368 33.777 Q 40.071 32.967 40.071 31.658 L 40.071 31.658 L 40.071 26.287 L 40.071 26.287 Q 40.071 24.979 39.368 24.168 L 39.368 24.168 L 39.368 24.168 Q 38.499 23.162 37.093 23.162 L 37.093 23.162 L 37.093 23.162 Q 35.686 23.162 34.817 24.168 L 34.817 24.168 L 34.817 24.168 Q 34.114 24.979 34.114 26.287 L 34.114 26.287 Z  M 32.161 31.658 L 32.161 31.658 L 32.161 26.287 L 32.161 26.287 Q 32.161 24.168 33.479 22.82 L 33.479 22.82 L 33.479 22.82 Q 34.866 21.404 37.093 21.404 L 37.093 21.404 L 37.093 21.404 Q 39.319 21.404 40.706 22.82 L 40.706 22.82 L 40.706 22.82 Q 42.024 24.158 42.024 26.287 L 42.024 26.287 L 42.024 31.658 L 42.024 31.658 Q 42.024 33.777 40.706 35.125 L 40.706 35.125 L 40.706 35.125 Q 39.319 36.541 37.093 36.541 L 37.093 36.541 L 37.093 36.541 Q 34.866 36.541 33.479 35.125 L 33.479 35.125 L 33.479 35.125 Q 32.161 33.777 32.161 31.658 Z  M 63.606 21.209 L 63.704 21.209 L 63.704 31.658 L 63.704 31.658 Q 63.704 33.768 62.386 35.125 L 62.386 35.125 L 62.386 35.125 Q 60.999 36.541 58.772 36.541 L 58.772 36.541 L 58.772 36.541 Q 56.761 36.541 55.345 35.125 L 55.345 35.125 L 55.345 35.125 Q 54.993 34.773 54.817 34.441 L 54.817 34.441 L 54.817 34.441 Q 54.593 34.783 54.27 35.096 L 54.27 35.096 L 54.27 35.096 Q 52.796 36.541 50.862 36.541 L 50.862 36.541 L 50.862 36.541 Q 48.675 36.541 47.249 35.125 L 47.249 35.125 L 47.249 35.125 Q 45.93 33.816 45.93 31.658 L 45.93 31.658 L 45.93 22.088 L 47.786 21.209 L 47.884 21.209 L 47.884 31.658 L 47.884 31.658 Q 47.884 32.967 48.587 33.777 L 48.587 33.777 L 48.587 33.777 Q 49.456 34.783 50.862 34.783 L 50.862 34.783 L 50.862 34.783 Q 52.268 34.783 53.138 33.777 L 53.138 33.777 L 53.138 33.777 Q 53.841 32.967 53.841 31.658 L 53.841 31.658 L 53.841 22.088 L 55.696 21.209 L 55.794 21.209 L 55.794 31.658 L 55.794 31.658 Q 55.794 32.967 56.497 33.777 L 56.497 33.777 L 56.497 33.777 Q 57.366 34.783 58.772 34.783 L 58.772 34.783 L 58.772 34.783 Q 60.179 34.783 61.048 33.777 L 61.048 33.777 L 61.048 33.777 Q 61.751 32.967 61.751 31.658 L 61.751 31.658 L 61.751 22.088 L 63.606 21.209 Z " fill="rgb(0,146,0)"/><path d=" M 10.617 10.34 L 8.889 10.34 L 8.889 10.34 Q 8.601 10.34 8.589 9.944 L 8.589 9.944 L 8.589 9.944 Q 8.577 9.536 8.889 9.536 L 8.889 9.536 L 8.889 9.536 Q 9.081 9.536 9.345 9.488 L 9.345 9.488 L 9.345 9.488 Q 9.609 9.44 9.933 9.356 L 9.933 9.356 L 9.933 9.356 Q 10.233 9.248 10.461 8.99 L 10.461 8.99 L 10.461 8.99 Q 10.689 8.732 10.785 8.384 L 10.785 8.384 L 10.785 8.384 Q 10.857 8.192 11.025 8.072 L 11.025 8.072 L 11.025 8.072 Q 11.193 7.952 11.469 7.964 L 11.469 7.964 L 11.469 7.964 Q 12.033 7.988 12.033 8.552 L 12.033 8.552 L 12.033 17.312 L 12.033 17.312 Q 12.033 17.876 11.325 17.876 L 11.325 17.876 L 11.325 17.876 Q 10.617 17.876 10.617 17.312 L 10.617 17.312 L 10.617 10.34 L 10.617 10.34 Z " fill="rgb(255,255,255)"/></g></g></svg>