<?xml version="1.0" encoding="UTF-8" standalone="no"?><!-- Generator: Gravit.io --><svg xmlns="http://www.w3.org/2000/svg" xmlns:xlink="http://www.w3.org/1999/xlink" style="isolation:isolate" viewBox="0 0 289.8 261.422" width="289.8pt" height="261.422pt"><defs><clipPath id="_clipPath_6uVR7q0oCfZTI26iWr29wZvx0BbubiWP"><rect width="289.8" height="261.422"/></clipPath></defs><g clip-path="url(#_clipPath_6uVR7q0oCfZTI26iWr29wZvx0BbubiWP)"><rect width="289.8" height="261.422" style="fill:rgb(0,255,68)" fill-opacity="0"/><g><path d=" M 83.071 156.422 L 159.067 229.05 L 289.8 92.261 L 213.798 19.632 L 83.071 156.422 Z " fill="rgb(27,94,32)"/><rect x="94.801" y="59.906" width="190.787" height="107.627" transform="matrix(0.506,-0.862,0.862,0.506,-4.179,220.137)" fill="rgb(165,214,167)"/><path d=" M 188.28 223.234 L 287.382 54.503 L 194.584 0 L 95.482 168.731 L 188.28 223.234 Z  M 198.065 13.392 L 273.991 57.984 L 184.8 209.843 L 108.874 165.25 L 198.065 13.392 Z " fill="rgb(56,142,60)"/><path d=" M 216.204 69.423 C 211.547 66.688 209.987 60.687 212.721 56.031 C 215.456 51.374 221.457 49.814 226.113 52.549 C 230.77 55.283 232.33 61.284 229.595 65.94 C 226.861 70.597 220.86 72.157 216.204 69.423 Z " fill="rgb(56,142,60)"/><path d=" M 174.079 141.136 C 157.781 131.565 152.32 110.562 161.891 94.265 C 171.462 77.967 192.464 72.506 208.762 82.077 C 225.06 91.648 230.521 112.65 220.95 128.948 C 211.379 145.245 190.377 150.707 174.079 141.136 Z " fill="rgb(56,142,60)"/><path d=" M 185.863 24.499 C 186.92 27.834 189.116 30.827 192.369 32.739 C 199.358 36.844 208.351 34.506 212.456 27.517 C 214.282 24.39 214.877 20.694 214.127 17.151 L 196.318 6.689 L 185.863 24.499 Z  M 197.001 198.729 C 195.945 195.394 193.748 192.4 190.496 190.489 C 183.507 186.384 174.513 188.722 170.408 195.71 C 168.583 198.838 167.987 202.534 168.737 206.077 L 186.546 216.538 L 197.001 198.729 Z  M 280.687 56.244 L 262.877 45.782 C 259.542 46.839 256.549 49.035 254.637 52.288 C 250.532 59.277 252.87 68.27 259.859 72.376 C 262.987 74.201 266.682 74.797 270.225 74.046 L 280.687 56.244 Z " fill="rgb(56,142,60)"/><path d=" M 196.926 120.917 C 190.305 114.564 179.983 114.151 172.876 119.955 L 139.043 147.245 L 125.056 147.245 L 117.424 131.366 L 145.087 84.204 L 106.437 95.767 C 101.786 97.161 97.784 100.165 95.146 104.241 L 54.263 167.402 L 36.612 172.927 L 56.383 237.569 L 118.493 223.987 C 131.52 221.139 143.158 213.866 151.428 203.406 L 198.603 145.283 C 204.403 137.941 203.677 127.395 196.926 120.917 Z " fill="rgb(255,183,77)"/><path d=" M 0 173.737 L 48.358 160.162 L 75.939 247.847 L 27.574 261.422 L 0 173.737 Z " fill="rgb(121,134,203)"/><path d=" M 172.857 128.98 C 172.857 128.98 174.775 136.176 178.135 139.536 C 178.135 139.536 189.647 145.296 189.647 145.296 C 189.647 145.296 200.147 134.651 192.002 126.385 C 183.547 117.797 172.857 128.98 172.857 128.98 Z " fill="rgb(255,224,178)"/></g></g></svg>